    <svg viewBox="0 0 316 316" xmlns="http://www.w3.org/2000/svg" class='w-full h-full'>
        <g transform="translate(0.000000,300.000000) scale(0.100000,-0.100000)" fill="#006400" stroke="none">
            <path d="M1535 2578 c-20 -24 -44 -56 -53 -73 -22 -43 -21 -119 4 -152 33 -44 44 -40 45 14 0 26 4 57 9 68 6 17 9 14 15 -18 4 -21 5 -54 2 -73 -7 -44 12 -45 47 -3 33 39 40 67 33 133 -5 50 -43 146 -58 146 -4 0 -24 -19 -44 -42z m53 -39 c17 -27 28 -124 15 -132 -6 -4 -21 7 -33 23 -22 29 -24 29 -47 15 -22 -15 -23 -14 -23 8 0 24 53 107 68 107 4 0 13 -10 20 -21z"/>
            <path d="M1300 2555 c-28 -72 -10 -144 43 -172 16 -8 30 -13 32 -11 14 17 25 53 25 83 0 29 -9 45 -44 83 l-45 47 -11 -30z m55 -68 c13 -27 8 -57 -10 -57 -15 0 -25 22 -25 56 0 30 22 31 35 1z"/>
            <path d="M1863 2412 c-28 -22 -60 -56 -72 -75 -25 -42 -28 -113 -5 -146 16 -22 17 -22 48 56 31 78 29 106 -5 62 -10 -13 -19 -19 -19 -12 0 17 59 83 75 83 8 0 17 -5 20 -11 9 -14 -3 -61 -14 -55 -5 3 -15 -20 -24 -52 -8 -31 -18 -65 -22 -74 -18 -44 58 -1 82 46 20 38 20 126 1 179 l-14 39 -51 -40z"/>
            <path d="M1150 2356 c0 -16 35 -98 55 -128 29 -44 90 -78 137 -78 36 0 71 18 52 26 -7 3 -37 20 -69 39 -65 40 -77 42 -69 18 4 -12 -1 -10 -16 7 -22 26 -43 70 -37 77 8 7 105 -18 123 -33 17 -12 17 -13 2 -8 -10 3 -26 3 -35 -1 -14 -5 0 -15 56 -41 40 -19 75 -34 77 -34 2 0 -2 13 -7 30 -15 43 -71 87 -132 104 -56 15 -137 29 -137 22z"/>
            <path d="M1454 2250 c110 -149 120 -297 34 -493 l-35 -77 -32 49 c-111 173 -385 234 -495 112 l-19 -21 38 16 c57 23 166 16 229 -16 65 -33 140 -117 165 -185 32 -86 30 -88 -42 -54 -174 81 -444 76 -549 -11 l-23 -19 40 11 c54 14 284 4 359 -17 195 -54 318 -180 318 -324 0 -76 -20 -138 -90 -275 -72 -142 -154 -229 -265 -281 l-75 -36 -44 22 c-159 81 -302 231 -384 403 -21 43 -43 80 -51 83 -31 12 -31 -15 1 -92 102 -247 271 -423 520 -541 470 -222 1034 -66 1320 365 60 90 131 250 118 263 -18 18 -42 -7 -78 -82 -72 -151 -209 -302 -335 -371 -59 -32 -70 -34 -149 -33 -115 2 -187 29 -257 99 -40 41 -55 65 -69 111 -32 109 -2 263 70 357 66 86 212 127 336 93 30 -8 56 -13 58 -11 10 9 -93 57 -144 66 -59 11 -155 0 -197 -23 -17 -8 -18 -7 -12 14 36 114 154 213 270 225 85 9 123 -2 139 -41 8 -20 25 -37 45 -46 34 -14 108 -10 155 9 l29 12 -39 40 c-62 65 -117 84 -164 59 -13 -7 -30 -5 -61 10 l-44 19 77 36 77 37 26 -20 c59 -47 161 -32 253 35 29 21 52 41 52 44 0 3 -37 21 -82 39 -100 39 -157 38 -213 -4 -45 -34 -45 -50 -2 -42 18 3 54 2 80 -3 51 -9 59 -1 25 25 -22 16 -21 16 31 10 30 -3 62 -13 70 -21 15 -15 13 -19 -14 -41 -16 -13 -43 -24 -59 -24 -25 0 -27 2 -15 17 13 15 8 16 -65 9 -97 -9 -249 -39 -336 -67 -143 -47 -285 -145 -341 -236 l-23 -36 -14 39 c-8 21 -14 75 -15 119 -1 103 22 157 99 231 63 60 60 71 -5 23 -24 -17 -44 -29 -46 -27 -5 5 45 118 72 162 14 22 48 67 75 99 27 31 46 57 43 57 -4 0 -42 -34 -85 -75 l-77 -76 -6 51 c-9 72 -60 172 -120 233 -81 83 -108 91 -53 17z m157 -301 c9 -17 7 -33 -10 -80 -12 -32 -21 -69 -19 -81 1 -13 -11 -50 -26 -82 -63 -130 -31 -350 46 -321 8 3 37 32 65 64 49 55 135 120 178 134 16 6 16 3 -5 -14 -64 -52 -107 -101 -128 -142 -25 -51 -27 -74 -7 -101 13 -17 10 -23 -30 -64 -75 -77 -117 -184 -119 -307 -2 -140 60 -237 192 -302 71 -35 83 -38 174 -40 69 -2 108 2 134 13 55 23 51 11 -8 -28 -74 -49 -109 -66 -206 -99 -125 -44 -211 -59 -331 -59 -167 0 -320 36 -464 109 -78 40 -139 79 -102 67 11 -4 34 -10 50 -13 17 -4 32 -10 35 -14 18 -27 218 71 288 141 54 54 105 141 100 168 -2 12 -16 -1 -45 -43 -40 -58 -123 -147 -123 -131 0 4 7 14 15 23 57 56 160 246 194 357 58 189 -16 332 -232 443 -41 22 -55 32 -40 33 12 0 24 -4 28 -9 3 -6 13 -10 23 -9 9 0 38 -8 64 -19 47 -18 48 -18 69 4 22 21 22 23 6 79 -19 67 -53 118 -113 174 -24 22 -41 40 -38 40 25 0 113 -63 154 -111 28 -33 60 -59 70 -59 10 0 28 11 38 25 31 39 80 164 88 223 7 56 17 64 35 31z m419 -313 c0 -9 -17 -17 -47 -21 -27 -5 -54 -9 -61 -11 -24 -4 -2 10 41 28 52 21 67 22 67 4z m186 -55 c6 0 23 -10 38 -22 21 -17 24 -24 15 -35 -22 -27 -94 -11 -117 27 -10 16 -9 19 4 19 8 0 13 4 10 9 -5 7 3 8 50 2z"/>
            <path d="M1427 861 c-18 -134 -145 -238 -352 -286 -27 -6 -28 -8 -10 -15 61 -23 247 55 313 130 46 53 72 110 72 156 0 55 -16 65 -23 15z"/>
            <path d="M1632 2271 c-28 -49 -28 -84 -1 -128 17 -28 24 -32 36 -22 19 16 43 64 43 85 0 22 -39 104 -49 104 -4 0 -17 -17 -29 -39z"/>
            <path d="M2126 2274 c-112 -38 -166 -95 -166 -176 0 -70 15 -68 84 7 35 39 62 72 61 73 -7 7 -42 -9 -63 -29 -27 -24 -47 -17 -31 12 14 27 97 79 126 79 24 0 29 -20 17 -68 -5 -17 -10 -20 -19 -12 -10 8 -19 0 -38 -32 -14 -24 -40 -58 -57 -75 l-32 -33 33 0 c90 0 167 115 157 236 l-3 41 -69 -23z"/>
            <path d="M695 2237 c16 -97 77 -186 142 -208 53 -17 68 -5 35 28 -15 15 -36 39 -46 53 -12 16 -20 21 -23 13 -13 -35 -46 6 -68 85 -5 17 -2 22 14 22 29 0 72 -20 104 -49 32 -29 35 -45 8 -36 -39 12 -29 -13 21 -55 l51 -44 -5 51 c-8 89 -58 134 -182 166 l-58 15 7 -41z"/>
            <path d="M1010 2143 c0 -61 28 -121 71 -157 28 -23 39 -27 72 -23 22 3 44 10 49 15 14 14 -8 86 -37 120 -20 24 -130 92 -149 92 -3 0 -6 -21 -6 -47z m142 -78 c27 -45 24 -65 -12 -65 -21 0 -39 9 -55 26 -25 27 -48 90 -39 106 9 14 86 -35 106 -67z"/>
            <path d="M1365 2049 c-24 -71 -15 -126 25 -161 37 -34 64 -35 84 -6 19 26 21 90 5 121 -13 25 -80 97 -90 97 -4 0 -15 -23 -24 -51z m62 -31 c51 -56 39 -138 -15 -104 -21 13 -31 51 -25 90 7 42 12 44 40 14z"/>
            <path d="M2321 2020 c-42 -10 -77 -45 -86 -87 -7 -33 -6 -33 32 -33 47 0 81 22 99 66 26 63 21 70 -45 54z"/>
            <path d="M755 1976 c-16 -7 -52 -27 -78 -44 l-48 -30 30 -21 c72 -51 163 -66 221 -36 17 9 39 33 50 54 11 22 25 41 32 44 7 2 -8 14 -34 25 -53 25 -127 28 -173 8z m122 -21 c35 -17 35 -41 1 -72 -25 -22 -127 -25 -152 -4 -29 24 -19 48 27 65 87 31 85 31 124 11z"/>
            <path d="M2090 1974 c-79 -21 -112 -44 -137 -94 -25 -48 -28 -67 -14 -89 7 -11 23 0 72 48 35 33 67 61 71 61 18 0 5 -20 -53 -83 -59 -65 -60 -66 -35 -73 34 -8 108 27 136 65 26 37 50 111 50 153 0 33 -8 34 -90 12z m36 -91 c-13 -24 -15 -25 -16 -7 0 29 -44 52 -65 34 -8 -7 -18 -10 -21 -7 -8 8 29 26 73 35 32 7 38 5 41 -9 2 -10 -4 -30 -12 -46z"/>
            <path d="M1774 1971 c-26 -11 -54 -49 -54 -72 0 -17 39 -39 71 -39 47 0 134 79 112 101 -14 14 -104 20 -129 10z m59 -53 c-19 -21 -58 -21 -58 2 0 15 41 30 63 22 10 -3 9 -9 -5 -24z"/>
            <path d="M1021 1781 c-23 -15 48 -81 87 -81 66 0 79 24 37 65 -18 19 -35 25 -67 25 -24 0 -49 -4 -57 -9z"/>
            <path d="M613 1733 c-13 -2 -23 -8 -23 -11 0 -18 67 -86 97 -98 28 -12 38 -12 69 1 32 13 35 18 29 42 -11 47 -38 66 -97 69 -29 1 -63 0 -75 -3z m124 -52 c6 -9 9 -19 7 -23 -8 -13 -48 -8 -68 7 -16 12 -17 17 -6 30 15 18 48 11 67 -14z"/>
            <path d="M470 1616 c0 -4 7 -20 15 -36 21 -41 63 -70 101 -70 43 0 46 27 6 71 -21 24 -38 32 -75 36 -26 3 -47 3 -47 -1z"/>
            <path d="M952 1540 c-36 -22 -71 -88 -72 -133 0 -16 5 -48 11 -73 11 -41 14 -45 36 -39 37 9 96 49 126 84 35 42 43 88 22 137 l-17 39 -26 -32 c-39 -46 -88 -136 -71 -131 8 2 28 23 44 46 33 46 45 51 45 22 0 -46 -50 -102 -102 -115 -22 -6 -26 -3 -31 20 -3 19 1 32 14 43 11 9 19 22 19 28 0 7 13 37 29 68 32 61 26 68 -27 36z"/>
            <path d="M694 1516 c-54 -24 -95 -95 -119 -204 l-7 -33 44 7 c125 17 188 54 207 122 9 30 1 87 -12 87 -11 0 -127 -106 -127 -116 0 -16 21 -10 52 16 33 28 48 32 48 12 0 -29 -60 -65 -132 -81 -23 -5 -28 -3 -28 13 0 11 5 32 12 46 8 19 14 22 20 13 7 -10 13 -7 26 12 9 14 37 46 61 73 l44 47 -29 0 c-16 -1 -43 -7 -60 -14z"/>
            <path d="M1960 1498 c-35 -29 -43 -47 -30 -63 22 -27 85 -19 125 16 21 19 32 36 27 41 -16 16 -106 21 -122 6z"/>
            <path d="M2155 1396 l-30 -13 45 -23 c52 -26 113 -70 107 -76 -3 -4 -103 40 -169 74 -5 2 -8 -6 -8 -18 0 -38 38 -87 86 -111 39 -18 57 -21 112 -16 37 3 80 10 95 16 33 13 30 22 -34 95 -67 76 -138 101 -204 72z m173 -89 c28 -26 28 -44 0 -52 -31 -10 -95 -8 -115 4 -14 8 -11 9 14 5 60 -12 77 29 34 81 -16 19 -16 19 14 1 17 -10 40 -28 53 -39z"/>
            <path d="M1081 1326 c-47 -26 -61 -76 -39 -147 13 -46 25 -48 60 -11 51 55 60 94 31 143 -20 33 -20 33 -52 15z m19 -97 c-12 -28 -15 -30 -26 -14 -9 12 -10 24 -2 47 9 27 12 28 26 15 13 -13 13 -20 2 -48z"/>
            <path d="M831 1245 c-22 -25 -31 -46 -31 -70 0 -38 27 -115 40 -115 17 0 70 75 76 106 6 33 -12 80 -39 102 -12 10 -20 6 -46 -23z m45 -49 c6 -25 -10 -66 -25 -66 -14 0 -20 40 -11 66 12 31 28 31 36 0z"/>
            <path d="M1960 1240 c0 -56 57 -106 113 -98 25 3 25 4 12 43 -18 50 -48 75 -91 75 -28 0 -34 -4 -34 -20z"/>
        </g>
    </svg>